<svg width="767" height="209" viewBox="0 0 767 209" fill="none" xmlns="http://www.w3.org/2000/svg">
<path d="M348.985 194.029V45.4883H394.541L432.323 113.281H433.619V45.4883H476.152V194.029H434.914L392.598 116.52H391.302V194.029H348.985Z" fill="#105391"/>
<path d="M199.319 194.029V45.4883H244.874L282.657 113.281H283.952V45.4883H326.485V194.029H285.248L242.931 116.52H241.636V194.029H199.319Z" fill="#105391"/>
<path d="M0 194.029V45.4883H44.4758V102.486H45.9235L81.9791 45.4883H129.478L81.9791 115.656L130.125 194.029H81.1155L45.9235 134.656H44.4758V194.029H0Z" fill="#105391"/>
<path d="M498.649 45.4863H574.063L590.72 79.6281H498.649V45.4863Z" fill="#DB1F3D"/>
<rect x="498.649" y="102.688" width="100.075" height="34.1418" fill="#DB1F3D"/>
<rect x="498.625" y="159.875" width="125.375" height="34.125" fill="#DB1F3D"/>
<rect x="698.375" y="159.875" width="29" height="34.125" fill="#DB1F3D"/>
<rect x="143.625" y="194" width="160" height="33.125" transform="rotate(-90 143.625 194)" fill="#DB1F3D"/>
<path d="M160.224 3.68181e-07L191.099 45.5L129.349 45.5L160.224 3.68181e-07Z" fill="#DB1F3D"/>
<path d="M766.375 177.5L720.875 208.375L720.875 146.625L766.375 177.5Z" fill="#DB1F3D"/>
<path d="M639 194.029V144.587L590.854 45.4883H636.409L661.022 103.998H662.533L687.146 45.4883H731.622L683.475 144.587V194.029H639Z" fill="#105391"/>
</svg>
